<svg id="Layer_1" data-name="Layer 1" xmlns="http://www.w3.org/2000/svg" xmlns:xlink="http://www.w3.org/1999/xlink" viewBox="0 0 5513.13 1593.78"><defs><style>.cls-1{fill:none;}.cls-2{fill:#00aeef;}.cls-3{fill:#fff682;}.cls-4{clip-path:url(#clip-path);}.cls-5{fill:#fff;}.cls-6{fill:#fdfdfd;}.cls-7{fill:#fcfcfc;}.cls-8{fill:#fafbfb;}.cls-9{fill:#f9f9fa;}.cls-10{fill:#f8f8f9;}.cls-11{fill:#f7f7f8;}.cls-12{fill:#f6f6f7;}.cls-13{fill:#f5f6f6;}.cls-14{fill:#f4f5f5;}.cls-15{fill:#f3f4f4;}.cls-16{fill:#f3f3f3;}.cls-17{fill:#f2f2f3;}.cls-18{fill:#f1f1f2;}.cls-19{fill:#f0f0f1;}.cls-20{fill:#eff0f0;}.cls-21{fill:#eeeff0;}.cls-22{fill:#edeeef;}.cls-23{fill:#ededee;}.cls-24{fill:#ececed;}.cls-25{fill:#ebecec;}.cls-26{fill:#eaebec;}.cls-27{fill:#e9eaeb;}.cls-28{fill:#e8e9ea;}.cls-29{fill:#e8e8e9;}.cls-30{fill:#e7e7e8;}.cls-31{fill:#e6e7e8;}.cls-32{fill:#e5e6e7;}.cls-33{fill:#e4e5e6;}.cls-34{fill:#e3e4e5;}.cls-35{fill:#e2e3e5;}.cls-36{fill:#e2e3e4;}.cls-37{fill:#e1e2e3;}.cls-38{fill:#e0e1e2;}.cls-39{fill:#dfe0e1;}.cls-40{fill:#dedfe1;}.cls-41{fill:#dddfe0;}.cls-42{fill:#dddedf;}.cls-43{fill:#dcddde;}.cls-44{fill:#dbdcde;}.cls-45{fill:#dadbdd;}.cls-46{fill:#d9dbdc;}.cls-47{fill:#d9dadb;}.cls-48{fill:#d8d9da;}.cls-49{fill:#d7d8da;}.cls-50{fill:#d6d7d9;}.cls-51{fill:#d5d7d8;}.cls-52{fill:#d4d6d7;}.cls-53{fill:#d4d5d6;}.cls-54{fill:#d3d4d6;}.cls-55{fill:#d2d3d5;}.cls-56{fill:#d1d2d4;}.cls-57{fill:#d0d2d3;}.cls-58{fill:#cfd1d3;}.cls-59{fill:#cfd0d2;}.cls-60{fill:#cecfd1;}.cls-61{fill:#cdced0;}.cls-62{fill:#cccecf;}.cls-63{fill:#cbcdcf;}.cls-64{fill:#caccce;}.cls-65{fill:#c9cbcd;}.cls-66{fill:#c9cacc;}.cls-67{fill:#c8cacb;}.cls-68{fill:#c7c9cb;}.cls-69{fill:#c6c8ca;}.cls-70{fill:#c5c7c9;}.cls-71{fill:#c4c6c8;}.cls-72{fill:#c4c5c7;}.cls-73{fill:#c3c5c7;}.cls-74{fill:#c2c4c6;}.cls-75{fill:#c1c3c5;}.cls-76{fill:#c0c2c4;}.cls-77{fill:#bfc1c3;}.cls-78{fill:#bfc0c3;}.cls-79{fill:#bec0c2;}.cls-80{fill:#bdbfc1;}.cls-81{fill:#bcbec0;}.cls-82{fill:#bbbdbf;}.cls-83{fill:#babcbf;}.cls-84{fill:#babcbe;}.cls-85{fill:#b9bbbd;}.cls-86{fill:#b8babc;}.cls-87{fill:#b7b9bb;}.cls-88{fill:#b6b8bb;}.cls-89{fill:#b5b7ba;}.cls-90{fill:#b5b7b9;}.cls-91{fill:#b4b6b8;}.cls-92{fill:#b3b5b7;}.cls-93{fill:#b2b4b7;}.cls-94{fill:#b1b3b6;}.cls-95{fill:#b0b3b5;}.cls-96{fill:#b0b2b4;}.cls-97{fill:#afb1b3;}.cls-98{fill:#aeb0b3;}.cls-99{fill:#adafb2;}.cls-100{fill:#acaeb1;}.cls-101{fill:#acaeb0;}.cls-102{fill:#abadaf;}.cls-103{fill:#aaacaf;}.cls-104{fill:#a9abae;}.cls-105{fill:#a8aaad;}.cls-106{fill:#a8aaac;}.cls-107{fill:#a7a9ab;}.cls-108{fill:#a6a8ab;}.cls-109{fill:#a5a7aa;}.cls-110{fill:#a4a6a9;}.cls-111{fill:#a4a6a8;}.cls-112{fill:#a3a5a7;}.cls-113{fill:#a2a4a7;}.cls-114{fill:#a1a3a6;}.cls-115{fill:#a0a3a5;}.cls-116{fill:#a0a2a4;}.cls-117{fill:#9fa1a4;}.cls-118{fill:#9ea0a3;}.cls-119{fill:#9d9fa2;}.cls-120{fill:#9c9fa1;}.cls-121{fill:#9c9ea0;}.cls-122{fill:#9b9da0;}.cls-123{fill:#9a9c9f;}.cls-124{fill:#999b9e;}.cls-125{fill:#999b9d;}.cls-126{fill:#989a9d;}.cls-127{fill:#97999c;}.cls-128{fill:#96989b;}.cls-129{fill:#96989a;}.cls-130{fill:#959799;}.cls-131{fill:#949699;}.cls-132{fill:#939598;}.cls-133{fill:#929597;}.cls-134{fill:#929496;}.cls-135{fill:#919396;}.cls-136{fill:#909295;}.cls-137{fill:#8f9194;}.cls-138{fill:#8f9193;}.cls-139{fill:#8e9093;}.cls-140{fill:#8d8f92;}.cls-141{fill:#8c8e91;}.cls-142{fill:#8c8e90;}.cls-143{fill:#8b8d90;}.cls-144{fill:#8a8c8f;}.cls-145{fill:#898b8e;}.cls-146{fill:#898b8d;}.cls-147{fill:#888a8d;}.cls-148{fill:#87898c;}.cls-149{fill:#86888b;}.cls-150{fill:#86888a;}.cls-151{fill:#85878a;}.cls-152{fill:#848689;}.cls-153{fill:#848588;}.cls-154{fill:#838587;}.cls-155{fill:#828486;}.cls-156{fill:#818386;}.cls-157{fill:#818285;}.cls-158{fill:#808284;}.cls-159{fill:#7f8183;}.cls-160{fill:#7e8083;}.cls-161{fill:#7e7f82;}.cls-162{fill:#7d7f81;}.cls-163{fill:#7c7e80;}.cls-164{fill:#7b7d80;}.cls-165{fill:#7b7c7f;}.cls-166{fill:#7a7c7e;}.cls-167{fill:#797b7d;}.cls-168{fill:#787a7d;}.cls-169{fill:#78797c;}.cls-170{fill:#77797b;}.cls-171{fill:#76787a;}.cls-172{fill:#75777a;}.cls-173{fill:#757679;}.cls-174{fill:#747578;}.cls-175{fill:#737577;}.cls-176{fill:#727476;}.cls-177{fill:#727376;}.cls-178{fill:#717275;}.cls-179{fill:#707274;}.cls-180{fill:#6f7173;}.cls-181{fill:#6e7072;}.cls-182{fill:#6e6f72;}.cls-183{fill:#6d6e71;}.cls-184{fill:#6c6e70;}.cls-185{fill:#6b6d6f;}.cls-186{fill:#6b6c6e;}.cls-187{fill:#6a6b6d;}.cls-188{fill:#696a6d;}.cls-189{fill:#68696c;}.cls-190{fill:#67696b;}.cls-191{fill:#67686a;}.cls-192{fill:#666769;}.cls-193{fill:#656668;}.cls-194{fill:#646568;}.cls-195{fill:#636467;}.cls-196{fill:#626466;}.cls-197{fill:#626365;}.cls-198{fill:#616264;}.cls-199{fill:#606163;}.cls-200{fill:#5f6062;}.cls-201{fill:#5e5f62;}.cls-202{fill:#5d5e61;}.cls-203{fill:#5d5e60;}.cls-204{fill:#5c5d5f;}.cls-205{fill:#5b5c5e;}.cls-206{fill:#5a5b5d;}.cls-207{fill:#595a5c;}.cls-208{fill:#58595b;}.cls-209{fill:#57585a;}.cls-210{fill:#575759;}.cls-211{fill:#565658;}.cls-212{fill:#555558;}.cls-213{fill:#545457;}.cls-214{fill:#535456;}.cls-215{fill:#525355;}.cls-216{fill:#515254;}.cls-217{fill:#505153;}.cls-218{fill:#4f5052;}.cls-219{fill:#4f4f51;}.cls-220{fill:#4e4e50;}.cls-221{fill:#4d4d4f;}.cls-222{fill:#4c4c4e;}.cls-223{fill:#4b4b4d;}.cls-224{fill:#4a4a4c;}.cls-225{fill:#49494b;}.cls-226{fill:#48484a;}.cls-227{fill:#474749;}.cls-228{fill:#464648;}.cls-229{fill:#454547;}.cls-230{fill:#444446;}.cls-231{fill:#434345;}.cls-232{fill:#424244;}.cls-233{fill:#414143;}.cls-234{fill:#404042;}.cls-235{fill:#3f3f40;}.cls-236{fill:#3e3e3f;}.cls-237{fill:#3d3d3e;}.cls-238{fill:#3c3b3d;}.cls-239{fill:#3b3a3c;}.cls-240{fill:#3a393b;}.cls-241{fill:#393839;}.cls-242{fill:#383738;}.cls-243{fill:#373537;}.cls-244{fill:#363435;}.cls-245{fill:#343334;}.cls-246{fill:#333233;}.cls-247{fill:#323031;}.cls-248{fill:#312f30;}.cls-249{fill:#302d2f;}.cls-250{fill:#2e2c2d;}.cls-251{fill:#2d2b2c;}.cls-252{fill:#2c292a;}.cls-253{fill:#2b2829;}.cls-254{fill:#292628;}.cls-255{fill:#282526;}.cls-256{fill:#272425;}.cls-257{fill:#262223;}.cls-258{fill:#242122;}.cls-259{fill:#231f20;}.cls-260{fill:#0059aa;}.cls-261{fill:#efc56e;}</style><clipPath id="clip-path" transform="translate(0 0.59)"><path class="cls-1" d="M115.53,137.64c.21-.18.4-.36.61-.53,10.11-8.3,22.57-15.61,36.39-21.61A281.73,281.73,0,0,1,197,100.65C228.22,92.85,261.6,88.38,295.4,86s68.29-2.52,102.85-1.55c69.2,1.8,138.9,9.19,208.44,18.73q104.28,14.9,208,37.26,51.85,11,103.39,23.8c34.36,8.5,68.65,17.42,102.75,27.11s68.13,19.73,101.88,30.74q50.71,16.2,100.59,35.13,24.95,9.44,49.49,19.9c16.4,6.9,32.63,14.23,48.61,22.11s31.8,16.17,47,25.57c7.6,4.72,15,9.71,22.23,15.13a166.32,166.32,0,0,1,20.52,17.75c-10.86-14.94-24.58-27.5-38.76-39.06A546.9,546.9,0,0,0,1328,286.5c-30.63-19.83-62.49-37.39-94.84-53.78s-65.3-31.38-98.49-45.73q-49.9-21.17-100.64-40.11C898.62,96.8,759.61,57.39,617.58,30.34,546.54,16.8,474.65,6.9,401.64,2.15,367.45.05,333-.59,298.18.58,220.92,36.79,151.8,84.13,115.53,137.64Z"/></clipPath></defs><polygon class="cls-1" points="853.84 864.24 678.56 1176.14 903.21 1176.14 868.03 957.61 853.84 864.24"/><path class="cls-2" d="M1088.25,1250.6,995.17,658.09H945.64S863.56,1083.73,1088.25,1250.6Z" transform="translate(0 0.59)"/><path class="cls-1" d="M678.56,1175.55H850.64c-36.11-27.75-76.09-59-119.37-93.8Z" transform="translate(0 0.59)"/><path class="cls-1" d="M868,957l-14.19-93.38L731.27,1081.75c43.28,34.77,83.26,66,119.37,93.8h52.57Z" transform="translate(0 0.59)"/><path class="cls-3" d="M853.84,863.64,868,957l35.18,218.53H850.64c8.12,6.23,16.08,12.32,23.79,18.2,23.25,17.7,81.49,61.82,158.81,117.47q37.62,27.08,72.65,51.65l-17.64-112.27C863.56,1083.73,945.64,658.09,945.64,658.09H908.15L802,807.23,671.88,1033.51q30.6,25.13,59.39,48.24Z" transform="translate(0 0.59)"/><path class="cls-2" d="M1132.8,1517.33a56,56,0,0,1-11.11-25.94l-15.8-100.59q-35-24.58-72.65-51.64c-77.32-55.65-135.56-99.77-158.81-117.47-7.71-5.88-15.67-12-23.79-18.21H678.56l52.71-93.79q-28.75-23.09-59.39-48.24L426.14,1488.79a111.37,111.37,0,0,1-17,23q-10.19,10.71-20.68,15.24l-65.42,26.59-8.64,39.55H590.92l8.64-39.55-101.21-28.53,140.1-250.3H914.94l38.88,249.65-99.36,29.18-8,39.55H1208.1l8-39.55-59.86-20.1Q1141.44,1528.35,1132.8,1517.33Z" transform="translate(0 0.59)"/><path class="cls-3" d="M93.79,164.65c-4.87,10-7.47,21.14-7.61,34.14a143.62,143.62,0,0,0,1.28,21.09,195.36,195.36,0,0,0,4.18,22.32c-8.32-36.41,1.58-71.65,23.89-104.56A83.92,83.92,0,0,0,93.79,164.65Z" transform="translate(0 0.59)"/><path class="cls-3" d="M745.36,1005.41C637.17,909.24,531.17,810.59,429.78,707.87q-37.92-38.6-74.64-78.23t-71.87-80.36c-23.36-27.22-45.84-55.1-67.52-83.33s-42.18-57.2-60.75-86.89-35.15-60.19-48-90.92A317.73,317.73,0,0,1,91.64,242.2a195.36,195.36,0,0,1-4.18-22.32,143.62,143.62,0,0,1-1.28-21.09c.14-13,2.74-24.18,7.61-34.14a83.92,83.92,0,0,1,21.74-27C151.8,84.13,220.92,36.79,298.18.58c-2.36.08-4.71.09-7.07.19-37.21,1.73-74.86,5.31-113,14.32a361.24,361.24,0,0,0-57.42,18.28c-19.14,8-38.39,18.39-56.57,32.8S29,99.72,17.57,123.06C5.93,146.25.38,172.51,0,196.84a236.77,236.77,0,0,0,1.87,34.82,288.29,288.29,0,0,0,5.94,32.7,409,409,0,0,0,19.57,59.9c15.51,37.87,34.9,72.17,55.49,104.9,41.46,65.25,88.52,124.06,137.75,180.07q36.93,42,75.39,82c25.61,26.71,51.79,52.69,78.15,78.38s53,50.95,80.09,75.71,54.33,49.19,81.81,73.32l41.37,36L619.25,990q41.89,35.23,84.28,69.72,169.88,137.51,347,263.88,88.46,63.27,178.5,123.93c60,40.41,120.67,79.88,182.22,117.71Q1241.9,1428,1074.85,1288.88C963.64,1195.87,853.41,1101.8,745.36,1005.41Z" transform="translate(0 0.59)"/><g class="cls-4"><rect class="cls-5" x="1259.93" width="151.28" height="358.25"/><rect class="cls-5" x="1255.44" width="4.49" height="358.25"/><rect class="cls-6" x="1250.95" width="4.49" height="358.25"/><rect class="cls-7" x="1246.46" width="4.49" height="358.25"/><rect class="cls-8" x="1241.98" width="4.49" height="358.25"/><rect class="cls-9" x="1237.49" width="4.49" height="358.25"/><rect class="cls-10" x="1233" width="4.49" height="358.25"/><rect class="cls-11" x="1228.51" width="4.49" height="358.25"/><rect class="cls-12" x="1224.03" width="4.49" height="358.25"/><rect class="cls-13" x="1219.54" width="4.49" height="358.25"/><rect class="cls-14" x="1215.05" width="4.49" height="358.25"/><rect class="cls-15" x="1210.56" width="4.49" height="358.25"/><rect class="cls-16" x="1206.07" width="4.49" height="358.25"/><rect class="cls-17" x="1201.59" width="4.49" height="358.25"/><rect class="cls-18" x="1197.1" width="4.49" height="358.25"/><rect class="cls-19" x="1192.61" width="4.49" height="358.25"/><rect class="cls-20" x="1188.12" width="4.49" height="358.25"/><rect class="cls-21" x="1183.64" width="4.49" height="358.25"/><rect class="cls-22" x="1179.15" width="4.49" height="358.25"/><rect class="cls-23" x="1174.66" width="4.49" height="358.25"/><rect class="cls-24" x="1170.17" width="4.49" height="358.25"/><rect class="cls-25" x="1165.68" width="4.49" height="358.25"/><rect class="cls-26" x="1161.2" width="4.49" height="358.25"/><rect class="cls-27" x="1156.71" width="4.49" height="358.25"/><rect class="cls-28" x="1152.22" width="4.49" height="358.25"/><rect class="cls-29" x="1147.73" width="4.49" height="358.25"/><rect class="cls-30" x="1143.24" width="4.49" height="358.25"/><rect class="cls-31" x="1138.76" width="4.49" height="358.25"/><rect class="cls-32" x="1134.27" width="4.49" height="358.25"/><rect class="cls-33" x="1129.78" width="4.49" height="358.25"/><rect class="cls-34" x="1125.29" width="4.49" height="358.25"/><rect class="cls-35" x="1120.81" width="4.49" height="358.25"/><rect class="cls-36" x="1116.32" width="4.49" height="358.25"/><rect class="cls-37" x="1111.83" width="4.49" height="358.25"/><rect class="cls-38" x="1107.34" width="4.49" height="358.25"/><rect class="cls-39" x="1102.85" width="4.49" height="358.25"/><rect class="cls-40" x="1098.37" width="4.49" height="358.25"/><rect class="cls-41" x="1093.88" width="4.49" height="358.25"/><rect class="cls-42" x="1089.39" width="4.49" height="358.25"/><rect class="cls-43" x="1084.9" width="4.49" height="358.25"/><rect class="cls-44" x="1080.41" width="4.49" height="358.25"/><rect class="cls-45" x="1075.93" width="4.49" height="358.25"/><rect class="cls-46" x="1071.44" width="4.49" height="358.25"/><rect class="cls-47" x="1066.95" width="4.49" height="358.25"/><rect class="cls-48" x="1062.46" width="4.49" height="358.25"/><rect class="cls-49" x="1057.98" width="4.49" height="358.25"/><rect class="cls-50" x="1053.49" width="4.49" height="358.25"/><rect class="cls-51" x="1049" width="4.49" height="358.25"/><rect class="cls-52" x="1044.51" width="4.49" height="358.25"/><rect class="cls-53" x="1040.02" width="4.49" height="358.25"/><rect class="cls-54" x="1035.54" width="4.49" height="358.25"/><rect class="cls-55" x="1031.05" width="4.49" height="358.25"/><rect class="cls-56" x="1026.56" width="4.49" height="358.25"/><rect class="cls-57" x="1022.07" width="4.49" height="358.25"/><rect class="cls-58" x="1017.59" width="4.49" height="358.25"/><rect class="cls-59" x="1013.1" width="4.49" height="358.25"/><rect class="cls-60" x="1008.61" width="4.49" height="358.25"/><rect class="cls-61" x="1004.12" width="4.49" height="358.25"/><rect class="cls-62" x="999.63" width="4.49" height="358.25"/><rect class="cls-63" x="995.15" width="4.49" height="358.25"/><rect class="cls-64" x="990.66" width="4.49" height="358.25"/><rect class="cls-65" x="986.17" width="4.49" height="358.25"/><rect class="cls-66" x="981.68" width="4.49" height="358.25"/><rect class="cls-67" x="977.19" width="4.49" height="358.25"/><rect class="cls-68" x="972.71" width="4.49" height="358.25"/><rect class="cls-69" x="968.22" width="4.49" height="358.25"/><rect class="cls-70" x="963.73" width="4.49" height="358.25"/><rect class="cls-71" x="959.24" width="4.49" height="358.25"/><rect class="cls-72" x="954.76" width="4.49" height="358.25"/><rect class="cls-73" x="950.27" width="4.49" height="358.25"/><rect class="cls-74" x="945.78" width="4.49" height="358.25"/><rect class="cls-75" x="941.29" width="4.49" height="358.25"/><rect class="cls-76" x="936.8" width="4.49" height="358.25"/><rect class="cls-77" x="932.32" width="4.49" height="358.25"/><rect class="cls-78" x="927.83" width="4.49" height="358.25"/><rect class="cls-79" x="923.34" width="4.49" height="358.25"/><rect class="cls-80" x="918.85" width="4.49" height="358.25"/><rect class="cls-81" x="914.36" width="4.49" height="358.25"/><rect class="cls-82" x="909.88" width="4.49" height="358.25"/><rect class="cls-83" x="905.39" width="4.49" height="358.25"/><rect class="cls-84" x="900.9" width="4.49" height="358.25"/><rect class="cls-85" x="896.41" width="4.49" height="358.25"/><rect class="cls-86" x="891.93" width="4.49" height="358.25"/><rect class="cls-87" x="887.44" width="4.49" height="358.25"/><rect class="cls-88" x="882.95" width="4.49" height="358.25"/><rect class="cls-89" x="878.46" width="4.49" height="358.25"/><rect class="cls-90" x="873.97" width="4.49" height="358.25"/><rect class="cls-91" x="869.49" width="4.49" height="358.25"/><rect class="cls-92" x="865" width="4.49" height="358.25"/><rect class="cls-93" x="860.51" width="4.49" height="358.25"/><rect class="cls-94" x="856.02" width="4.49" height="358.25"/><rect class="cls-95" x="851.53" width="4.49" height="358.25"/><rect class="cls-96" x="847.05" width="4.49" height="358.25"/><rect class="cls-97" x="842.56" width="4.49" height="358.25"/><rect class="cls-98" x="838.07" width="4.49" height="358.25"/><rect class="cls-99" x="833.58" width="4.49" height="358.25"/><rect class="cls-100" x="829.1" width="4.49" height="358.25"/><rect class="cls-101" x="824.61" width="4.49" height="358.25"/><rect class="cls-102" x="820.12" width="4.49" height="358.25"/><rect class="cls-103" x="815.63" width="4.49" height="358.25"/><rect class="cls-104" x="811.14" width="4.49" height="358.25"/><rect class="cls-105" x="806.66" width="4.49" height="358.25"/><rect class="cls-106" x="802.17" width="4.49" height="358.25"/><rect class="cls-107" x="797.68" width="4.49" height="358.25"/><rect class="cls-108" x="793.19" width="4.49" height="358.25"/><rect class="cls-109" x="788.71" width="4.49" height="358.25"/><rect class="cls-110" x="784.22" width="4.49" height="358.25"/><rect class="cls-111" x="779.73" width="4.49" height="358.25"/><rect class="cls-112" x="775.24" width="4.49" height="358.25"/><rect class="cls-113" x="770.75" width="4.49" height="358.25"/><rect class="cls-114" x="766.27" width="4.49" height="358.25"/><rect class="cls-115" x="761.78" width="4.49" height="358.25"/><rect class="cls-116" x="757.29" width="4.49" height="358.25"/><rect class="cls-117" x="752.8" width="4.49" height="358.25"/><rect class="cls-118" x="748.31" width="4.49" height="358.25"/><rect class="cls-119" x="743.83" width="4.49" height="358.25"/><rect class="cls-120" x="739.34" width="4.49" height="358.25"/><rect class="cls-121" x="734.85" width="4.49" height="358.25"/><rect class="cls-122" x="730.36" width="4.49" height="358.25"/><rect class="cls-123" x="725.88" width="4.49" height="358.25"/><rect class="cls-124" x="721.39" width="4.49" height="358.25"/><rect class="cls-125" x="716.9" width="4.49" height="358.25"/><rect class="cls-126" x="712.41" width="4.49" height="358.25"/><rect class="cls-127" x="707.92" width="4.49" height="358.25"/><rect class="cls-128" x="703.44" width="4.49" height="358.25"/><rect class="cls-129" x="698.95" width="4.49" height="358.25"/><rect class="cls-130" x="694.46" width="4.49" height="358.25"/><rect class="cls-131" x="689.97" width="4.49" height="358.25"/><rect class="cls-132" x="685.48" width="4.49" height="358.25"/><rect class="cls-133" x="681" width="4.49" height="358.25"/><rect class="cls-134" x="676.51" width="4.49" height="358.25"/><rect class="cls-135" x="672.02" width="4.49" height="358.25"/><rect class="cls-136" x="667.53" width="4.49" height="358.25"/><rect class="cls-137" x="663.05" width="4.49" height="358.25"/><rect class="cls-138" x="658.56" width="4.49" height="358.25"/><rect class="cls-139" x="654.07" width="4.49" height="358.25"/><rect class="cls-140" x="649.58" width="4.49" height="358.25"/><rect class="cls-141" x="645.09" width="4.49" height="358.25"/><rect class="cls-142" x="640.61" width="4.49" height="358.25"/><rect class="cls-143" x="636.12" width="4.49" height="358.25"/><rect class="cls-144" x="631.63" width="4.49" height="358.25"/><rect class="cls-145" x="627.14" width="4.49" height="358.25"/><rect class="cls-146" x="622.66" width="4.49" height="358.25"/><rect class="cls-147" x="618.17" width="4.49" height="358.25"/><rect class="cls-148" x="613.68" width="4.49" height="358.25"/><rect class="cls-149" x="609.19" width="4.49" height="358.25"/><rect class="cls-150" x="604.7" width="4.49" height="358.25"/><rect class="cls-151" x="600.22" width="4.49" height="358.25"/><rect class="cls-152" x="595.73" width="4.49" height="358.25"/><rect class="cls-153" x="591.24" width="4.49" height="358.25"/><rect class="cls-154" x="586.75" width="4.49" height="358.25"/><rect class="cls-155" x="582.26" width="4.49" height="358.25"/><rect class="cls-156" x="577.78" width="4.49" height="358.25"/><rect class="cls-157" x="573.29" width="4.49" height="358.25"/><rect class="cls-158" x="568.8" width="4.49" height="358.25"/><rect class="cls-159" x="564.31" width="4.49" height="358.25"/><rect class="cls-160" x="559.83" width="4.49" height="358.25"/><rect class="cls-161" x="555.34" width="4.49" height="358.25"/><rect class="cls-162" x="550.85" width="4.49" height="358.25"/><rect class="cls-163" x="546.36" width="4.49" height="358.25"/><rect class="cls-164" x="541.87" width="4.49" height="358.25"/><rect class="cls-165" x="537.39" width="4.49" height="358.25"/><rect class="cls-166" x="532.9" width="4.49" height="358.25"/><rect class="cls-167" x="528.41" width="4.49" height="358.25"/><rect class="cls-168" x="523.92" width="4.49" height="358.25"/><rect class="cls-169" x="519.43" width="4.49" height="358.25"/><rect class="cls-170" x="514.95" width="4.49" height="358.25"/><rect class="cls-171" x="510.46" width="4.49" height="358.25"/><rect class="cls-172" x="505.97" width="4.49" height="358.25"/><rect class="cls-173" x="501.48" width="4.49" height="358.25"/><rect class="cls-174" x="497" width="4.49" height="358.25"/><rect class="cls-175" x="492.51" width="4.49" height="358.25"/><rect class="cls-176" x="488.02" width="4.49" height="358.25"/><rect class="cls-177" x="483.53" width="4.49" height="358.25"/><rect class="cls-178" x="479.04" width="4.49" height="358.25"/><rect class="cls-179" x="474.56" width="4.49" height="358.25"/><rect class="cls-180" x="470.07" width="4.49" height="358.25"/><rect class="cls-181" x="465.58" width="4.49" height="358.25"/><rect class="cls-182" x="461.09" width="4.49" height="358.25"/><rect class="cls-183" x="456.6" width="4.49" height="358.25"/><rect class="cls-184" x="452.12" width="4.49" height="358.25"/><rect class="cls-185" x="447.63" width="4.49" height="358.25"/><rect class="cls-186" x="443.14" width="4.49" height="358.25"/><rect class="cls-187" x="438.65" width="4.49" height="358.25"/><rect class="cls-188" x="434.17" width="4.49" height="358.25"/><rect class="cls-189" x="429.68" width="4.49" height="358.25"/><rect class="cls-190" x="425.19" width="4.49" height="358.25"/><rect class="cls-191" x="420.7" width="4.49" height="358.25"/><rect class="cls-192" x="416.21" width="4.49" height="358.25"/><rect class="cls-193" x="411.73" width="4.49" height="358.25"/><rect class="cls-194" x="407.24" width="4.49" height="358.25"/><rect class="cls-195" x="402.75" width="4.49" height="358.25"/><rect class="cls-196" x="398.26" width="4.49" height="358.25"/><rect class="cls-197" x="393.78" width="4.49" height="358.25"/><rect class="cls-198" x="389.29" width="4.49" height="358.25"/><rect class="cls-199" x="384.8" width="4.49" height="358.25"/><rect class="cls-200" x="380.31" width="4.49" height="358.25"/><rect class="cls-201" x="375.82" width="4.49" height="358.25"/><rect class="cls-202" x="371.34" width="4.49" height="358.25"/><rect class="cls-203" x="366.85" width="4.49" height="358.25"/><rect class="cls-204" x="362.36" width="4.49" height="358.25"/><rect class="cls-205" x="357.87" width="4.49" height="358.25"/><rect class="cls-206" x="353.38" width="4.49" height="358.25"/><rect class="cls-207" x="348.9" width="4.49" height="358.25"/><rect class="cls-208" x="344.41" width="4.49" height="358.25"/><rect class="cls-209" x="339.92" width="4.49" height="358.25"/><rect class="cls-210" x="335.43" width="4.49" height="358.25"/><rect class="cls-211" x="330.95" width="4.49" height="358.25"/><rect class="cls-212" x="326.46" width="4.49" height="358.25"/><rect class="cls-213" x="321.97" width="4.49" height="358.25"/><rect class="cls-214" x="317.48" width="4.49" height="358.25"/><rect class="cls-215" x="312.99" width="4.49" height="358.25"/><rect class="cls-216" x="308.51" width="4.49" height="358.25"/><rect class="cls-217" x="304.02" width="4.49" height="358.25"/><rect class="cls-218" x="299.53" width="4.49" height="358.25"/><rect class="cls-219" x="295.04" width="4.49" height="358.25"/><rect class="cls-220" x="290.55" width="4.49" height="358.25"/><rect class="cls-221" x="286.07" width="4.49" height="358.25"/><rect class="cls-222" x="281.58" width="4.49" height="358.25"/><rect class="cls-223" x="277.09" width="4.49" height="358.25"/><rect class="cls-224" x="272.6" width="4.49" height="358.25"/><rect class="cls-225" x="268.12" width="4.49" height="358.25"/><rect class="cls-226" x="263.63" width="4.49" height="358.25"/><rect class="cls-227" x="259.14" width="4.49" height="358.25"/><rect class="cls-228" x="254.65" width="4.49" height="358.25"/><rect class="cls-229" x="250.16" width="4.49" height="358.25"/><rect class="cls-230" x="245.68" width="4.49" height="358.25"/><rect class="cls-231" x="241.19" width="4.49" height="358.25"/><rect class="cls-232" x="236.7" width="4.49" height="358.25"/><rect class="cls-233" x="232.21" width="4.49" height="358.25"/><rect class="cls-234" x="227.73" width="4.49" height="358.25"/><rect class="cls-235" x="223.24" width="4.49" height="358.25"/><rect class="cls-236" x="218.75" width="4.49" height="358.25"/><rect class="cls-237" x="214.26" width="4.49" height="358.25"/><rect class="cls-238" x="209.77" width="4.49" height="358.25"/><rect class="cls-239" x="205.29" width="4.49" height="358.25"/><rect class="cls-240" x="200.8" width="4.49" height="358.25"/><rect class="cls-241" x="196.31" width="4.49" height="358.25"/><rect class="cls-242" x="191.82" width="4.49" height="358.25"/><rect class="cls-243" x="187.33" width="4.49" height="358.25"/><rect class="cls-244" x="182.85" width="4.49" height="358.25"/><rect class="cls-245" x="178.36" width="4.49" height="358.25"/><rect class="cls-246" x="173.87" width="4.49" height="358.25"/><rect class="cls-247" x="169.38" width="4.49" height="358.25"/><rect class="cls-248" x="164.9" width="4.49" height="358.25"/><rect class="cls-249" x="160.41" width="4.49" height="358.25"/><rect class="cls-250" x="155.92" width="4.49" height="358.25"/><rect class="cls-251" x="151.43" width="4.49" height="358.25"/><rect class="cls-252" x="146.94" width="4.49" height="358.25"/><rect class="cls-253" x="142.46" width="4.49" height="358.25"/><rect class="cls-254" x="137.97" width="4.49" height="358.25"/><rect class="cls-255" x="133.48" width="4.49" height="358.25"/><rect class="cls-256" x="128.99" width="4.49" height="358.25"/><rect class="cls-257" x="124.5" width="4.49" height="358.25"/><rect class="cls-258" x="120.02" width="4.49" height="358.25"/><rect class="cls-259" x="115.53" width="4.49" height="358.25"/></g><path class="cls-2" d="M1245.17,264.89c17.52.86,34.95,2.29,52.38,3.67l26.1,2.35,26,2.78c8.66,1,17.44,1.33,26.16,2a123.66,123.66,0,0,1,25.72,4.63,198.51,198.51,0,0,1,25,9.08,127.68,127.68,0,0,1,24.2,13.68l-.5,2.94a123.84,123.84,0,0,1-27.19,4.14,196.9,196.9,0,0,1-26.42-.47,123.82,123.82,0,0,1-25.67-4.91c-8.41-2.53-16.76-5.39-25.22-7.56l-25.36-6.76-25.29-7.19c-16.83-5-33.66-9.92-50.4-15.42Z" transform="translate(0 0.59)"/><path class="cls-2" d="M1344,229.46a161.65,161.65,0,0,1,16.1,12.63c5.1,4.48,10,9.18,14.77,14a381.07,381.07,0,0,1,27,30.64l7.74,9.73L1399.22,303q-8.62,5.37-17.46,10.26c-5.9,3.26-11.87,6.37-17.94,9.24s-12.22,5.6-18.5,8a154.93,154.93,0,0,1-19.32,6.23,183.33,183.33,0,0,1,15.2-15.21c5.23-4.71,10.59-9.14,16-13.4s11-8.31,16.58-12.2,11.29-7.61,17-11.17L1388.17,301a397.82,397.82,0,0,1-24-33.74c-3.73-5.9-7.33-11.93-10.73-18.18A191.12,191.12,0,0,1,1344,229.46Z" transform="translate(0 0.59)"/><path class="cls-2" d="M1255.61,239a107.65,107.65,0,0,1,8.43,6.89c2.7,2.41,5.31,4.92,7.87,7.48s5,5.21,7.49,7.9,4.83,5.45,7.18,8.24l3.62,4.3-4.79,2.79c-3.12,1.81-6.27,3.58-9.44,5.27s-6.39,3.3-9.64,4.82-6.53,3-9.86,4.3a102.08,102.08,0,0,1-10.19,3.52c2.74-2.69,5.62-5.08,8.51-7.42s5.87-4.51,8.86-6.64,6-4.13,9.08-6.1,6.16-3.84,9.27-5.67l-1.17,7.08c-2.33-2.81-4.63-5.66-6.86-8.57s-4.43-5.88-6.56-8.92-4.19-6.14-6.18-9.33S1257.33,242.43,1255.61,239Z" transform="translate(0 0.59)"/><path class="cls-2" d="M1460.62,1579.42c-11.08,11.09-73.67-40.27-116.49-75.4-23.85-19.57-55.9-46.94-92.69-81.72q1.18-21.72,2.36-43.46a897.83,897.83,0,0,0,345.1,6.21,340,340,0,0,1-46.1,65.81c-43.65,48.56-94.53,75.46-92.18,114.24C1461.07,1572.52,1463.25,1576.79,1460.62,1579.42Z" transform="translate(0 0.59)"/><path class="cls-259" d="M1439.43,1395.53c-25.64,0-43.74-1-44.07-1a822,822,0,0,1-143-20.61l2.27-10.68a812,812,0,0,0,141.25,20.36c.62,0,62,3.26,118.91-2.31,4-.39,14.79-1.64,36.34-4.14l.36,0c8.31-1,14.88-1.73,23.67-3.22,6.89-1.17,13.8-2.56,20.53-4.13l2.26,10.68c-6.93,1.62-14,3-21.13,4.25-9,1.54-15.73,2.32-24.19,3.3l-.35,0c-21.62,2.5-32.47,3.76-36.52,4.16C1489.09,1394.82,1461.47,1395.53,1439.43,1395.53Z" transform="translate(0 0.59)"/><path class="cls-5" d="M1480.68,1316.08a133,133,0,0,0,3.58,38.84,124.52,124.52,0,0,0,13.29,33.07" transform="translate(0 0.59)"/><path class="cls-259" d="M1494.59,1389.89a128.43,128.43,0,0,1-13.7-34.06,136.34,136.34,0,0,1-3.67-40l6.93.42a128.33,128.33,0,0,0,3.47,37.72,120.6,120.6,0,0,0,12.89,32.07Z" transform="translate(0 0.59)"/><path class="cls-5" d="M1515,1315.76a128.14,128.14,0,0,0,3.58,38.17,121.26,121.26,0,0,0,13.29,32.52" transform="translate(0 0.59)"/><path class="cls-259" d="M1528.89,1388.38a124.47,124.47,0,0,1-13.71-33.52,131.42,131.42,0,0,1-3.69-39.32l6.93.43a124.13,124.13,0,0,0,3.48,37,117.06,117.06,0,0,0,12.88,31.51Z" transform="translate(0 0.59)"/><path class="cls-5" d="M1546.13,1314.53a122.23,122.23,0,0,0,3.58,37.21,116,116,0,0,0,13.3,31.68" transform="translate(0 0.59)"/><path class="cls-259" d="M1560.08,1385.39a120.07,120.07,0,0,1-13.72-32.71,125.2,125.2,0,0,1-3.69-38.37l6.93.44a117.94,117.94,0,0,0,3.46,36,113,113,0,0,0,12.87,30.67Z" transform="translate(0 0.59)"/><path class="cls-3" d="M1462.54,1379.93c1.18-2.72.21-5.41-.74-8.54s-10.41-35.25-4.15-47.06c6.7-12.65,33.42-5.84,99.07-9.94,6.87-.43,19.13-1.26,19.33-3.67s-10.76-5.1-20.45-7.18a8,8,0,0,0-1-.14c-18-1.3-32.94-1.82-43.78-2-7.81-.15-14.69-.15-22-.2-14.1-.09-18.76,0-36.81.13-32.79.15-28.79-.27-37.39.07-26.51,1.06-38.74,5.07-43.43,6.63a99.94,99.94,0,0,0-20.38,9.27c-8.52,5.13-13.89,8.36-18.17,15-7.89,12.22-5.18,25.89-4.88,27.37a37.17,37.17,0,0,0,8,16.4c1.41,1.67,3.41,2,5.16,2.48,18,5.08,71.54,5,71.54,5C1442.57,1383.44,1459.07,1387.92,1462.54,1379.93Z" transform="translate(0 0.59)"/><ellipse class="cls-5" cx="1560.06" cy="1411.66" rx="9.99" ry="10.5"/><path class="cls-260" d="M1734.07,1313.79l36.06-15a21.44,21.44,0,0,0,9.7-8.69,37.75,37.75,0,0,0,5.23-15.16l61.19-449.69h-71.63a8.51,8.51,0,0,0-7.6,4,52.52,52.52,0,0,0-4.85,10.11l-33.08,89.37h-16.67l20.65-148H2037.3l-20.65,148H2000l-7.71-89.37a35.19,35.19,0,0,0-2.12-10.11c-1.08-2.69-3.19-4-6.35-4h-67.9L1854.71,1275q-1.24,9.3,1.49,15.57t7.22,8.28l37.07,15-3.49,24.26H1730.58Z" transform="translate(0 0.59)"/><path class="cls-260" d="M2097.75,1348.16a84.45,84.45,0,0,1-42.16-10.71q-19-10.71-32.59-31.34t-21.15-50.55q-7.57-29.93-7.58-68.35a450.65,450.65,0,0,1,4.47-63.69,388.73,388.73,0,0,1,13.06-59.24,313.46,313.46,0,0,1,20.9-51.77,192.12,192.12,0,0,1,27.86-41,123.55,123.55,0,0,1,34-26.89,83.56,83.56,0,0,1,39.55-9.71q23.63,0,42.78,10.91t32.6,31.75q13.43,20.84,20.64,51.16t7.21,69.15a426.66,426.66,0,0,1-4.6,62.89,399.77,399.77,0,0,1-13.19,58.84,299.14,299.14,0,0,1-20.89,51.36,198.22,198.22,0,0,1-27.73,40.63,121.28,121.28,0,0,1-34,26.9A83.31,83.31,0,0,1,2097.75,1348.16Zm3.49-40.44q11.94,0,21.51-12.13t16.79-31.34a300.55,300.55,0,0,0,12.32-43.27q5.1-24.06,8.2-48.12t4.61-45.7q1.48-21.63,1.49-35.79,0-10.92-.13-23.86t-1.11-25.68a242.59,242.59,0,0,0-3.24-24.87,92.72,92.72,0,0,0-6.34-21.23A43.34,43.34,0,0,0,2144.89,981a22.53,22.53,0,0,0-15.55-5.66q-12.43,0-22.13,12.74t-16.92,33.16a324.19,324.19,0,0,0-12.19,45.9q-5,25.47-8.09,50.75t-4.47,47.92q-1.38,22.65-1.37,37.2,0,15.38,1.12,33.57a192.32,192.32,0,0,0,5,34q3.85,15.76,11.2,26.49T2101.24,1307.72Z" transform="translate(0 0.59)"/><path class="cls-260" d="M2331.58,1345.34a50.91,50.91,0,0,1-23-5.27,50,50,0,0,1-18.4-16.17q-7.85-10.92-12.32-27.7t-4.48-39.83q0-9.7.87-20.83t2.37-21.23l25.87-182.79q1.5-10.51-1.12-18a22.07,22.07,0,0,0-10.33-11.93l-20.64-12.13-.25-19.41,110.94-31.94-32.33,233.33q-1,6.88-1.86,13.75t-1.5,13.55q-.63,6.67-1.12,12.94c-.33,4.18-.59,8-.75,11.53a145.12,145.12,0,0,0,.87,23.86,56.52,56.52,0,0,0,5,17.79A27.15,27.15,0,0,0,2359,1276q6,3.86,14.68,3.84a47.44,47.44,0,0,0,11.07-1.41,41.72,41.72,0,0,0,11.81-5.06,56.35,56.35,0,0,0,11.94-10.11,72,72,0,0,0,11.19-17l30.6-226q1.25-9.3,1.87-20T2453,979q.24-10.51.24-19.41V945h73.39L2493,1191.66q-1.5,11.74-3,23c-1,7.55-1.83,14.7-2.48,21.44s-1.21,12.87-1.62,18.4-.62,10.18-.62,14a40.85,40.85,0,0,0,1.24,9.3,41.58,41.58,0,0,0,3.86,10.11,24.74,24.74,0,0,0,6.84,8.09,16.27,16.27,0,0,0,10.2,3.23,16,16,0,0,0,4.22-.81,39.76,39.76,0,0,0,6.1-2.42q3.36-1.62,6.84-3.64a50.58,50.58,0,0,0,6.47-4.45h6.22v26.69a110.88,110.88,0,0,1-13.06,11.32,80.55,80.55,0,0,1-15.92,9.1,110.16,110.16,0,0,1-19.41,6.27,103.8,103.8,0,0,1-23.25,2.43,39.63,39.63,0,0,1-18.91-4.65,45,45,0,0,1-15.18-13.55,72,72,0,0,1-10.31-21.43,106.07,106.07,0,0,1-4.36-27.91q-13.44,25.08-25.62,39t-23,20.62q-10.82,6.68-20,8.09A111.13,111.13,0,0,1,2331.58,1345.34Z" transform="translate(0 0.59)"/><path class="cls-260" d="M2595.27,1073.17q1-8.09,2.36-18.8a167.84,167.84,0,0,0,1.37-21.23,77.14,77.14,0,0,0-2.24-19.21q-2.24-8.68-8.71-12.34l-21.39-12.13-.25-19.41,108-31.94-9.7,88.56q9-16.59,18-33A228.11,228.11,0,0,1,2702,964.19,101.52,101.52,0,0,1,2723.75,943a43.16,43.16,0,0,1,25.25-8.09,66.72,66.72,0,0,1,12.44,1,57.05,57.05,0,0,1,9.45,2.63,47.17,47.17,0,0,1,7.84,3.84l7.58,4.65-16.41,120.51h-20.15l-6.23-30.33a15.18,15.18,0,0,0-3.22-6.67,31.43,31.43,0,0,0-5.85-5.46,29.77,29.77,0,0,0-7.21-3.84,22.07,22.07,0,0,0-7.6-1.42,71.17,71.17,0,0,0-14.17,1.42,44.3,44.3,0,0,0-13.81,5.46,65.71,65.71,0,0,0-13.8,11.32,115.77,115.77,0,0,0-14.43,19.41l-27.11,205.44q-1,6.89-1.5,17.39t-.62,21.43q-.13,10.92,0,20.82t.13,15.57h-73.89Z" transform="translate(0 0.59)"/><path class="cls-260" d="M2856.47,1349a167.76,167.76,0,0,1-29.35-2.43,199.69,199.69,0,0,1-25.26-6.06,161,161,0,0,1-21.26-8.29q-9.7-4.65-17.42-9.1l15.43-115.25H2799l3,45.29q.75,10.11,5.22,17a79,79,0,0,0,8.71,11.33,116.13,116.13,0,0,0,9.08,7.88,68.91,68.91,0,0,0,11.69,7.48,84.22,84.22,0,0,0,13.56,5.47,51.26,51.26,0,0,0,15.17,2.22,48.69,48.69,0,0,0,19.9-3.85,38.13,38.13,0,0,0,14.68-11.32,50.55,50.55,0,0,0,8.95-18,87.42,87.42,0,0,0,3-23.86q0-12.13-3-20.63a49.11,49.11,0,0,0-7.83-14.55,58.7,58.7,0,0,0-11.2-10.72q-6.33-4.65-13.05-9.1c-3-1.88-6.06-3.9-9.21-6.06s-6.22-4.25-9.2-6.27l-9-6.07q-4.47-3-8.45-6.27a129.83,129.83,0,0,1-15.18-14.76,99.36,99.36,0,0,1-13.93-20.82,125.39,125.39,0,0,1-10.08-28.51q-3.86-16.38-3.85-38.22a166.87,166.87,0,0,1,4.61-40.64,134.16,134.16,0,0,1,12.56-32.76A114,114,0,0,1,2834,966.82a107.78,107.78,0,0,1,23.25-18,104.59,104.59,0,0,1,25.87-10.51,108.11,108.11,0,0,1,26.87-3.44,174.43,174.43,0,0,1,21.52,1.41q11.33,1.43,22.39,3.65t21.26,5.25q10.2,3,18.42,6.27l-15.67,114.85h-21.4l-.75-44.08a34.28,34.28,0,0,0-3.85-15.57,43.72,43.72,0,0,0-8.34-11.12,79.91,79.91,0,0,0-8.08-6.88,59.74,59.74,0,0,0-9.33-5.66,53.17,53.17,0,0,0-10.94-3.84,55.13,55.13,0,0,0-12.69-1.42,33,33,0,0,0-14.8,3.65,41.16,41.16,0,0,0-13.19,10.51,55.25,55.25,0,0,0-9.57,17.18,70.63,70.63,0,0,0-3.74,24.07,80.77,80.77,0,0,0,2.62,22,62.4,62.4,0,0,0,6.59,15.57,50.54,50.54,0,0,0,8.58,10.72,73,73,0,0,0,8.84,7.07q7.95,5.67,16.91,12.13t16.42,12.13a219.55,219.55,0,0,1,21.14,17.39,100.23,100.23,0,0,1,17.29,21.44,107.61,107.61,0,0,1,11.56,27.7q4.23,15.57,4.23,36.59,0,26.7-5.22,46.92t-14.05,35a95,95,0,0,1-20.77,24.66,108.07,108.07,0,0,1-25.13,15.78,115.31,115.31,0,0,1-27,8.28A154.19,154.19,0,0,1,2856.47,1349Z" transform="translate(0 0.59)"/><path d="M3424.2,1341.65a246.12,246.12,0,0,1-59.63-7.11q-28.5-7.11-50.12-21.18a112,112,0,0,1-34.56-34.87q-12.94-20.84-13-47.9a107.37,107.37,0,0,1,4.76-30.37,168.8,168.8,0,0,1,13-31.59,177.94,177.94,0,0,1,19.23-29,127,127,0,0,1,24-22.9l102.39-45.47q-11.24-10.07-22.68-21.17a194.89,194.89,0,0,1-20.51-23.26,130.31,130.31,0,0,1-14.91-25.33,68,68,0,0,1-5.83-27.77,87.7,87.7,0,0,1,9.07-39.91,120.61,120.61,0,0,1,24.41-32.8,162.21,162.21,0,0,1,36.07-25.86,250.07,250.07,0,0,1,44.29-18.39,337.94,337.94,0,0,1,48.16-11.11,316.32,316.32,0,0,1,48.4-3.82,334.87,334.87,0,0,1,54.64,4.69,209.26,209.26,0,0,1,51.84,15.27q23.57,10.59,38.67,27.94T3737,932.45a88,88,0,0,1-3,21,121.25,121.25,0,0,1-9.29,24.46,128.15,128.15,0,0,1-16.21,24.47,116.27,116.27,0,0,1-24.19,21.7l-116.65,45.12,122.27,118q7.34-6.93,16.42-17t18.36-21.16q9.28-11.12,17.71-22.57t14.48-21.52a38.36,38.36,0,0,0,3.45-6.07q1.29-2.94,2.58-5.72c-2.58-.7-5.11-1.33-7.55-1.92s-4.83-1.09-7.13-1.56l-59.63-14.57,6.05-21.17h222.94l-6.06,21.17-49.68,11.8a30.16,30.16,0,0,0-9.29,3.82,81,81,0,0,0-8.63,6.07,97.79,97.79,0,0,0-7.79,6.94c-2.45,2.43-4.52,4.57-6.26,6.42q-26.37,27.43-54,52.93t-58.75,49.46l58.75,55.53a162.72,162.72,0,0,0,21.61,17.18q10.79,7.13,18.57,9.2l57,15.27-6.05,21.17h-122.7q-20.73,0-33.47-2.08a75.57,75.57,0,0,1-22.27-6.94,78.74,78.74,0,0,1-18.14-13q-8.66-8.14-20.73-20.3l-18.14-17.7q-23.34,15.62-46.89,28.63a357.53,357.53,0,0,1-48.81,22.39,326.46,326.46,0,0,1-52.7,14.58A317.43,317.43,0,0,1,3424.2,1341.65Zm54-60.39a288.17,288.17,0,0,0,36.5-2.08,191.51,191.51,0,0,0,31.11-6.6,224.3,224.3,0,0,0,29.16-11.1q14.25-6.59,30.67-15.62l-152.51-151a164.57,164.57,0,0,0-25.48,22.91,144,144,0,0,0-19,26.55,138.2,138.2,0,0,0-12.09,29.16,110.7,110.7,0,0,0-4.33,30.71,75.34,75.34,0,0,0,5.83,29.5,71.29,71.29,0,0,0,17.07,24.47,83.8,83.8,0,0,0,27,16.83Q3457.89,1281.27,3478.2,1281.26Zm63.93-237.74a198.29,198.29,0,0,0,36.29-20.66A137,137,0,0,0,3605.64,997a104.62,104.62,0,0,0,22.9-66.28,57.44,57.44,0,0,0-3.68-20.48,47,47,0,0,0-11-17,53.42,53.42,0,0,0-18.35-11.63q-11-4.33-25.7-4.33A87.25,87.25,0,0,0,3535,884a88.75,88.75,0,0,0-27.22,17.88,80.77,80.77,0,0,0-17.71,25,67.7,67.7,0,0,0-6.27,28.11,62.56,62.56,0,0,0,5.19,25.16,107.23,107.23,0,0,0,13.6,22.91,196.57,196.57,0,0,0,18.79,21Q3531.76,1034.15,3542.13,1043.52Z" transform="translate(0 0.59)"/><path class="cls-261" d="M4214.66,1326l34-14.92a20.74,20.74,0,0,0,9.15-8.67,39,39,0,0,0,4.93-15.12L4320.44,839h-67.55a7.91,7.91,0,0,0-7.16,4,53.36,53.36,0,0,0-4.57,10.08L4210,942.2h-15.71l19.47-147.55h286.85L4481.1,942.2h-15.71l-7.27-89.09a36.69,36.69,0,0,0-2-10.08,5.83,5.83,0,0,0-6-4h-64l-57.7,448.29q-1.17,9.29,1.41,15.52c1.72,4.18,4,6.92,6.8,8.27l34.95,14.92-3.28,24.18H4211.37Z" transform="translate(0 0.59)"/><path class="cls-261" d="M4508.31,1086.12q.93-8.05,2.23-18.74a176.33,176.33,0,0,0,1.29-21.17,80.91,80.91,0,0,0-2.12-19.15q-2.1-8.65-8.2-12.3l-20.17-12.09-.24-19.35,101.8-31.84-9.15,88.28q8.44-16.53,17-32.85a229.42,229.42,0,0,1,18.17-29.43,98.4,98.4,0,0,1,20.53-21.17,39.2,39.2,0,0,1,23.8-8.06,59.44,59.44,0,0,1,11.73,1,51.49,51.49,0,0,1,8.91,2.62,42.59,42.59,0,0,1,7.39,3.83c2.26,1.48,4.65,3,7.15,4.63L4673,1080.48h-19l-5.87-30.23a15.49,15.49,0,0,0-3.05-6.66,29.9,29.9,0,0,0-5.51-5.44,27.73,27.73,0,0,0-6.8-3.83,19.73,19.73,0,0,0-7.16-1.41,63.4,63.4,0,0,0-13.36,1.41,40.83,40.83,0,0,0-13,5.44,62.5,62.5,0,0,0-13,11.29,116.06,116.06,0,0,0-13.6,19.35L4547,1275.2q-.93,6.87-1.41,17.34t-.58,21.36q-.12,10.89,0,20.76t.12,15.52h-69.67Z" transform="translate(0 0.59)"/><path class="cls-261" d="M4733,1357.44a41.9,41.9,0,0,1-23.92-7.26q-10.79-7.25-18.42-20.36T4679,1298.18a190.33,190.33,0,0,1-4.11-41.12q0-27.4,4.82-49a166.44,166.44,0,0,1,13-38.09,114.4,114.4,0,0,1,19.35-28.22,102.95,102.95,0,0,1,50.55-29.63,113.45,113.45,0,0,1,27.44-3.43,65.2,65.2,0,0,1,8.68.6c3,.41,5.9.88,8.79,1.42s5.83,1.15,8.8,1.81,5.86,1.41,8.68,2.22q.93-7.26,1.87-14.52t1.65-14.51q.69-7.26,1.17-14.71t.47-14.72q0-27.81-8.33-43.14t-24.74-15.31q-8.69,0-19.59,6.65a163.49,163.49,0,0,0-22,16.32q-11.16,9.68-21.47,20.56t-17.59,19h-9.85L4718,975.66q12.19-7.24,23.34-12.49a151.4,151.4,0,0,1,22.28-8.47,163.14,163.14,0,0,1,22.64-4.84,176.39,176.39,0,0,1,24.39-1.61,102.74,102.74,0,0,1,27.44,4,71.24,71.24,0,0,1,27,14.51q12.42,10.5,20.64,28.22t8.2,45.56q0,7.67-.35,15.32t-.94,15.32q-.59,7.65-1.4,15.12t-1.76,14.71l-13.61,103.21q-1.4,9.68-2.7,19.14t-2.34,18.95c-.7,6.32-1.26,12.7-1.64,19.15s-.59,12.9-.59,19.35a39.42,39.42,0,0,0,1.88,12.5,34.82,34.82,0,0,0,4.81,9.67,22.11,22.11,0,0,0,6.68,6.25,14.66,14.66,0,0,0,7.51,2.23,14,14,0,0,0,5.27-1.22c2-.81,4-1.74,6-2.82a59.22,59.22,0,0,0,6-3.63q2.93-2,5-3.63h5.86v26.61a94.63,94.63,0,0,1-16,13.51,91.68,91.68,0,0,1-16.76,8.86,90.62,90.62,0,0,1-17.37,5,98,98,0,0,1-17.47,1.61,38,38,0,0,1-16.65-3.83,41.15,41.15,0,0,1-14.19-11.49,62,62,0,0,1-10.2-19.35q-4-11.69-4.69-27.82a268.86,268.86,0,0,1-15,27.62,104.15,104.15,0,0,1-15.94,20,61.77,61.77,0,0,1-18.3,12.3A55.37,55.37,0,0,1,4733,1357.44Zm32.13-60.07q12.68,0,23-8.87t18.07-25.8l15.24-114.09a147.34,147.34,0,0,0-29.91,3,55.42,55.42,0,0,0-26.15,13.3q-11.49,10.29-18.41,29.63t-6.92,52a143.39,143.39,0,0,0,1.29,19.75,59.17,59.17,0,0,0,4.34,16.12,29.47,29.47,0,0,0,7.86,10.89A17.43,17.43,0,0,0,4765.14,1297.37Z" transform="translate(0 0.59)"/><path class="cls-261" d="M4952.32,1044.6q-.7-5.64-1.06-10.28a47.68,47.68,0,0,0-1.28-8.26,21.19,21.19,0,0,0-2.82-6.45,15.29,15.29,0,0,0-5.63-4.85L4916,1002.67l-.23-19.35,89.6-31.84L5026,1187.72l4.93,53.61,41.51-122.15a404.53,404.53,0,0,0,13.84-50.6q4.68-23.57,6.56-42.52t2-33.26q.1-14.31.11-23.18V958.33h70.84v12.1q-3.06,5.64-8.56,17.73t-12.08,27q-6.57,14.92-13,30.64t-11.14,29L5049.43,1274l-34.25,79.82h-32.37Z" transform="translate(0 0.59)"/><path class="cls-261" d="M5240.11,1358.25a61.69,61.69,0,0,1-25.8-5.44,72.31,72.31,0,0,1-21.93-15.73,113.39,113.39,0,0,1-17.82-24.59,165.31,165.31,0,0,1-13.25-32.25,250.61,250.61,0,0,1-8.22-39.11,339,339,0,0,1-2.81-44.54,432.83,432.83,0,0,1,4.92-66.12,376.91,376.91,0,0,1,14-59.46,269.81,269.81,0,0,1,21.94-50.2,187.91,187.91,0,0,1,28.73-38.7,122.55,122.55,0,0,1,34.24-25,88.42,88.42,0,0,1,38.82-8.87,75.38,75.38,0,0,1,23,3.83,57.08,57.08,0,0,1,21.82,13.1q9.86,9.29,16.29,24.59t6.45,38.7q0,24.19-5,43.34a135.05,135.05,0,0,1-13.49,33.67,101.76,101.76,0,0,1-19.58,24.59,113.18,113.18,0,0,1-23.45,16.53,107.37,107.37,0,0,1-25.1,9.47,105.35,105.35,0,0,1-24.28,3,137.8,137.8,0,0,1-16.53-1,101.72,101.72,0,0,1-16.54-3.43q-.7,7.66-1.17,15.32t-.46,15.32a300,300,0,0,0,2.81,42.33,145.71,145.71,0,0,0,9,34.87q6.23,15.12,16.19,23.79t24.28,8.66a79.29,79.29,0,0,0,20.28-2.61,95.9,95.9,0,0,0,19.71-7.66,113.53,113.53,0,0,0,19-12.5,153.44,153.44,0,0,0,18-17.14h7.51l-4.7,36.29q-13.84,17.73-25.56,30.43a133.92,133.92,0,0,1-23.81,20.76,89.32,89.32,0,0,1-25.92,11.9A118.15,118.15,0,0,1,5240.11,1358.25Zm-4.92-233.82a67.33,67.33,0,0,0,25.21-4.64,49.11,49.11,0,0,0,20.29-15.52q8.67-10.89,13.61-28.43t4.92-43.74q0-19.74-6.45-31.85t-18.41-12.09a11.77,11.77,0,0,0-7.63,3,66.42,66.42,0,0,0-6.91,6.65,96.79,96.79,0,0,0-15,24.38,240.93,240.93,0,0,0-11.49,31.85q-4.93,17.15-8.33,35.28t-5.52,34.67a77.83,77.83,0,0,0,7.86.41Z" transform="translate(0 0.59)"/><path class="cls-261" d="M5428.45,1355.83a37,37,0,0,1-17.82-4.43,45.41,45.41,0,0,1-14.31-12.3,60.3,60.3,0,0,1-9.61-18.95,80.16,80.16,0,0,1-3.52-24.39q0-18.13,1.06-31.44t2.69-25.8l51.84-401.13q1.17-10.49-1.18-17.75a23.17,23.17,0,0,0-9.38-12.09l-18.06-12.09-.23-19.35L5513.13,741l-59.58,463.22q-1.41,11.7-2.58,23.38c-.78,7.8-1.44,15.11-2,22s-1,13-1.29,18.54-.47,9.75-.47,12.7a47.71,47.71,0,0,0,1.05,9.27,39.34,39.34,0,0,0,3.52,10.08,24.45,24.45,0,0,0,6.45,8.07,14.83,14.83,0,0,0,9.62,3.23,16,16,0,0,0,4.69-1.22c2.19-.81,4.61-1.81,7.27-3a66.73,66.73,0,0,0,7.86-4.24,55.32,55.32,0,0,0,6.69-4.83h5.86v26.61a93.59,93.59,0,0,1-13,11.48,106.2,106.2,0,0,1-16.41,9.88,97.43,97.43,0,0,1-19.71,7.06A95.05,95.05,0,0,1,5428.45,1355.83Z" transform="translate(0 0.59)"/></svg>